<svg width="48" height="80" viewBox="0 0 48 80" fill="none" xmlns="http://www.w3.org/2000/svg">
<path d="M42.0497 41.8061C38.5369 37.5933 36.6061 32.2813 36.6061 26.7961C36.6061 21.1849 32.8939 16.4421 27.7919 14.8858C29.0249 12.7436 31.5597 9.04268 35.2902 7.00018C35.9434 6.64237 36.2372 5.85955 35.9781 5.16112L34.4266 0.980022C34.2697 0.557365 33.9314 0.227521 33.505 0.0814277C33.0784 -0.0648223 32.6091 -0.011541 32.2258 0.225647C29.5708 1.86862 24.4733 6.06159 23.6594 14.3571C17.0125 14.6174 11.7031 20.0853 11.7031 26.7961C11.7031 32.2935 9.78032 37.5839 6.25969 41.806C2.89173 45.8447 0.865631 51.0413 0.865631 56.7113C0.865631 69.5736 11.2927 80.0004 24.1547 80.0004C37.0167 80.0004 47.4438 69.5736 47.4438 56.7113C47.4436 51.0411 45.4174 45.8449 42.0497 41.8061Z" fill="black"/>
</svg>
